<mxfile host="app.diagrams.net" modified="2022-08-26T20:41:37.105Z" agent="5.0 (Windows NT 10.0; Win64; x64) AppleWebKit/537.36 (KHTML, like Gecko) Chrome/104.0.0.0 Safari/537.36" etag="omTY0ZdLELB37RBBMJ3P" version="20.2.7" type="github">
  <diagram id="5Zg_8bIlh_OO6-3hTcMJ" name="Page-1">
    <mxGraphModel dx="5431" dy="2189" grid="1" gridSize="10" guides="1" tooltips="1" connect="1" arrows="1" fold="1" page="1" pageScale="1" pageWidth="850" pageHeight="1100" math="0" shadow="0">
      <root>
        <mxCell id="0" />
        <mxCell id="1" parent="0" />
        <mxCell id="3M1BN86w53qEPDXQvwi6-63" value="&lt;font style=&quot;font-size: 23px;&quot;&gt;Pricing&lt;/font&gt;" style="rounded=1;whiteSpace=wrap;html=1;fontColor=#333333;strokeColor=#666666;fillColor=#f5f5f5;strokeWidth=1;" vertex="1" parent="1">
          <mxGeometry x="1910" y="320" width="2710" height="660" as="geometry" />
        </mxCell>
        <mxCell id="3M1BN86w53qEPDXQvwi6-58" value="" style="rounded=1;whiteSpace=wrap;html=1;fontColor=#333333;strokeColor=#666666;fillColor=#f5f5f5;" vertex="1" parent="1">
          <mxGeometry x="-1720" y="-410" width="2710" height="230" as="geometry" />
        </mxCell>
        <mxCell id="3M1BN86w53qEPDXQvwi6-96" value="" style="rounded=0;whiteSpace=wrap;html=1;fontSize=23;fontColor=#5C5C5C;strokeColor=#006658;strokeWidth=1;fillColor=#F19C99;" vertex="1" parent="1">
          <mxGeometry x="3070" y="400" width="1434" height="490" as="geometry" />
        </mxCell>
        <mxCell id="3M1BN86w53qEPDXQvwi6-51" value="" style="rounded=1;whiteSpace=wrap;html=1;fontColor=#333333;strokeColor=#666666;fillColor=#f5f5f5;strokeWidth=1;" vertex="1" parent="1">
          <mxGeometry x="-1710" y="1060" width="2710" height="230" as="geometry" />
        </mxCell>
        <mxCell id="3M1BN86w53qEPDXQvwi6-46" value="&lt;font style=&quot;font-size: 23px;&quot;&gt;SignupProcedure&lt;/font&gt;" style="rounded=1;whiteSpace=wrap;html=1;fontColor=#333333;strokeColor=#666666;fillColor=#f5f5f5;strokeWidth=1;" vertex="1" parent="1">
          <mxGeometry x="-1710" y="680" width="2710" height="230" as="geometry" />
        </mxCell>
        <mxCell id="3M1BN86w53qEPDXQvwi6-35" value="" style="rounded=0;whiteSpace=wrap;html=1;fontSize=23;fontColor=#333333;strokeColor=#666666;fillColor=#f5f5f5;" vertex="1" parent="1">
          <mxGeometry x="-2880" y="-410" width="910" height="450" as="geometry" />
        </mxCell>
        <mxCell id="3M1BN86w53qEPDXQvwi6-20" value="&lt;font style=&quot;font-size: 23px;&quot;&gt;Pricing&lt;/font&gt;" style="rounded=1;whiteSpace=wrap;html=1;fontColor=#333333;strokeColor=#666666;fillColor=#f5f5f5;strokeWidth=1;" vertex="1" parent="1">
          <mxGeometry x="-1700" y="320" width="2710" height="230" as="geometry" />
        </mxCell>
        <mxCell id="3M1BN86w53qEPDXQvwi6-19" value="" style="rounded=1;whiteSpace=wrap;html=1;fontColor=#333333;strokeColor=#666666;fillColor=#f5f5f5;" vertex="1" parent="1">
          <mxGeometry x="-1700" y="-60" width="2710" height="230" as="geometry" />
        </mxCell>
        <mxCell id="3M1BN86w53qEPDXQvwi6-41" style="edgeStyle=orthogonalEdgeStyle;rounded=0;orthogonalLoop=1;jettySize=auto;html=1;fontSize=23;fontColor=#5C5C5C;strokeColor=#006658;strokeWidth=2;fillColor=#21C0A5;" edge="1" parent="1" source="3M1BN86w53qEPDXQvwi6-1" target="3M1BN86w53qEPDXQvwi6-40">
          <mxGeometry relative="1" as="geometry" />
        </mxCell>
        <object placeholders="1" c4Type="life-journey-ms" c4Container="life-core-journey" c4Technology="netcore" c4Description="Journey" label="&lt;font style=&quot;font-size: 16px&quot;&gt;&lt;b&gt;%c4Type%&lt;/font&gt;&lt;div&gt;[%c4Container%:&amp;nbsp;%c4Technology%]&lt;/div&gt;&lt;br&gt;&lt;div&gt;&lt;font style=&quot;font-size: 11px&quot;&gt;&lt;font color=&quot;#E6E6E6&quot;&gt;%c4Description%&lt;/font&gt;&lt;/div&gt;" id="3M1BN86w53qEPDXQvwi6-1">
          <mxCell style="shape=hexagon;size=50;perimeter=hexagonPerimeter2;whiteSpace=wrap;html=1;fixedSize=1;rounded=1;labelBackgroundColor=none;fillColor=#C3ABD0;fontSize=12;fontColor=#5C5C5C;align=center;strokeColor=#006658;metaEdit=1;points=[[0.5,0,0],[1,0.25,0],[1,0.5,0],[1,0.75,0],[0.5,1,0],[0,0.75,0],[0,0.5,0],[0,0.25,0]];resizable=0;arcSize=5;fillStyle=auto;" vertex="1" parent="1">
            <mxGeometry x="-100" y="-30" width="200" height="170" as="geometry" />
          </mxCell>
        </object>
        <object placeholders="1" c4Type="life-core-operations-ms" c4Container="life-core-operations-ms" c4Technology="netcore" c4Description="core-operations-ms" label="&lt;font style=&quot;font-size: 16px&quot;&gt;&lt;b&gt;%c4Type%&lt;/font&gt;&lt;div&gt;[%c4Container%:&amp;nbsp;%c4Technology%]&lt;/div&gt;&lt;br&gt;&lt;div&gt;&lt;font style=&quot;font-size: 11px&quot;&gt;&lt;font color=&quot;#E6E6E6&quot;&gt;%c4Description%&lt;/font&gt;&lt;/div&gt;" id="3M1BN86w53qEPDXQvwi6-3">
          <mxCell style="shape=hexagon;size=50;perimeter=hexagonPerimeter2;whiteSpace=wrap;html=1;fixedSize=1;rounded=1;labelBackgroundColor=none;fillColor=#21C0A5;fontSize=12;fontColor=#5C5C5C;align=center;strokeColor=#006658;metaEdit=1;points=[[0.5,0,0],[1,0.25,0],[1,0.5,0],[1,0.75,0],[0.5,1,0],[0,0.75,0],[0,0.5,0],[0,0.25,0]];resizable=0;arcSize=5;fillStyle=auto;rotation=0;" vertex="1" parent="1">
            <mxGeometry x="-990" y="1080" width="200" height="170" as="geometry" />
          </mxCell>
        </object>
        <object placeholders="1" c4Type="life-digital-signature-ms" c4Container="life-digital-signature-ms" c4Technology="netcore" c4Description="life-digital-signature-ms" label="&lt;font style=&quot;font-size: 16px&quot;&gt;&lt;b&gt;%c4Type%&lt;/font&gt;&lt;div&gt;[%c4Container%:&amp;nbsp;%c4Technology%]&lt;/div&gt;&lt;br&gt;&lt;div&gt;&lt;font style=&quot;font-size: 11px&quot;&gt;&lt;font color=&quot;#E6E6E6&quot;&gt;%c4Description%&lt;/font&gt;&lt;/div&gt;" id="3M1BN86w53qEPDXQvwi6-7">
          <mxCell style="shape=hexagon;size=50;perimeter=hexagonPerimeter2;whiteSpace=wrap;html=1;fixedSize=1;rounded=1;labelBackgroundColor=none;fillColor=#21C0A5;fontSize=12;fontColor=#5C5C5C;align=center;strokeColor=#006658;metaEdit=1;points=[[0.5,0,0],[1,0.25,0],[1,0.5,0],[1,0.75,0],[0.5,1,0],[0,0.75,0],[0,0.5,0],[0,0.25,0]];resizable=0;arcSize=5;fillStyle=auto;rotation=0;" vertex="1" parent="1">
            <mxGeometry x="-60" y="1080" width="200" height="170" as="geometry" />
          </mxCell>
        </object>
        <mxCell id="3M1BN86w53qEPDXQvwi6-55" style="edgeStyle=orthogonalEdgeStyle;rounded=0;orthogonalLoop=1;jettySize=auto;html=1;fontSize=23;fontColor=#5C5C5C;strokeColor=#006658;strokeWidth=2;fillColor=#21C0A5;" edge="1" parent="1" source="3M1BN86w53qEPDXQvwi6-8" target="3M1BN86w53qEPDXQvwi6-54">
          <mxGeometry relative="1" as="geometry" />
        </mxCell>
        <object placeholders="1" c4Type="life-async-process-ms" c4Container="life-async-process-ms" c4Technology="netcore" c4Description="life-async-process-ms" label="&lt;font style=&quot;font-size: 16px&quot;&gt;&lt;b&gt;%c4Type%&lt;/font&gt;&lt;div&gt;[%c4Container%:&amp;nbsp;%c4Technology%]&lt;/div&gt;&lt;br&gt;&lt;div&gt;&lt;font style=&quot;font-size: 11px&quot;&gt;&lt;font color=&quot;#E6E6E6&quot;&gt;%c4Description%&lt;/font&gt;&lt;/div&gt;" id="3M1BN86w53qEPDXQvwi6-8">
          <mxCell style="shape=hexagon;size=50;perimeter=hexagonPerimeter2;whiteSpace=wrap;html=1;fixedSize=1;rounded=1;labelBackgroundColor=none;fillColor=#21C0A5;fontSize=12;fontColor=#5C5C5C;align=center;strokeColor=#006658;metaEdit=1;points=[[0.5,0,0],[1,0.25,0],[1,0.5,0],[1,0.75,0],[0.5,1,0],[0,0.75,0],[0,0.5,0],[0,0.25,0]];resizable=0;arcSize=5;fillStyle=auto;rotation=0;" vertex="1" parent="1">
            <mxGeometry x="-1475" y="1080" width="200" height="170" as="geometry" />
          </mxCell>
        </object>
        <object placeholders="1" c4Type="life-pricing-atp-ms" c4Container="life-pricing-atp-ms" c4Technology="netcore" c4Description="dev-life-pricing-atp-ms" label="&lt;font style=&quot;font-size: 16px&quot;&gt;&lt;b&gt;%c4Type%&lt;/font&gt;&lt;div&gt;[%c4Container%:&amp;nbsp;%c4Technology%]&lt;/div&gt;&lt;br&gt;&lt;div&gt;&lt;font style=&quot;font-size: 11px&quot;&gt;&lt;font color=&quot;#E6E6E6&quot;&gt;%c4Description%&lt;/font&gt;&lt;/div&gt;" id="3M1BN86w53qEPDXQvwi6-9">
          <mxCell style="shape=hexagon;size=50;perimeter=hexagonPerimeter2;whiteSpace=wrap;html=1;fixedSize=1;rounded=1;labelBackgroundColor=none;fillColor=#FFB570;fontSize=12;fontColor=#5C5C5C;align=center;strokeColor=#006658;metaEdit=1;points=[[0.5,0,0],[1,0.25,0],[1,0.5,0],[1,0.75,0],[0.5,1,0],[0,0.75,0],[0,0.5,0],[0,0.25,0]];resizable=0;arcSize=5;fillStyle=auto;rotation=0;" vertex="1" parent="1">
            <mxGeometry x="-560" y="360" width="200" height="170" as="geometry" />
          </mxCell>
        </object>
        <object placeholders="1" c4Type="life-pricing-ms" c4Container="life-pricing-ms" c4Technology="netcore" c4Description="life-pricing-ms" label="&lt;font style=&quot;font-size: 16px&quot;&gt;&lt;b&gt;%c4Type%&lt;/font&gt;&lt;div&gt;[%c4Container%:&amp;nbsp;%c4Technology%]&lt;/div&gt;&lt;br&gt;&lt;div&gt;&lt;font style=&quot;font-size: 11px&quot;&gt;&lt;font color=&quot;#E6E6E6&quot;&gt;%c4Description%&lt;/font&gt;&lt;/div&gt;" id="3M1BN86w53qEPDXQvwi6-10">
          <mxCell style="shape=hexagon;size=50;perimeter=hexagonPerimeter2;whiteSpace=wrap;html=1;fixedSize=1;rounded=1;labelBackgroundColor=none;fillColor=#FFB570;fontSize=12;fontColor=#5C5C5C;align=center;strokeColor=#006658;metaEdit=1;points=[[0.5,0,0],[1,0.25,0],[1,0.5,0],[1,0.75,0],[0.5,1,0],[0,0.75,0],[0,0.5,0],[0,0.25,0]];resizable=0;arcSize=5;fillStyle=auto;rotation=0;" vertex="1" parent="1">
            <mxGeometry x="-956" y="360" width="200" height="170" as="geometry" />
          </mxCell>
        </object>
        <object placeholders="1" c4Type="??????????????" c4Container="??????????????" c4Technology="??????????????" c4Description="??????????????" label="&lt;font style=&quot;font-size: 16px&quot;&gt;&lt;b&gt;%c4Type%&lt;/font&gt;&lt;div&gt;[%c4Container%:&amp;nbsp;%c4Technology%]&lt;/div&gt;&lt;br&gt;&lt;div&gt;&lt;font style=&quot;font-size: 11px&quot;&gt;&lt;font color=&quot;#E6E6E6&quot;&gt;%c4Description%&lt;/font&gt;&lt;/div&gt;" id="3M1BN86w53qEPDXQvwi6-11">
          <mxCell style="shape=hexagon;size=50;perimeter=hexagonPerimeter2;whiteSpace=wrap;html=1;fixedSize=1;rounded=1;labelBackgroundColor=none;fillColor=#FFB570;fontSize=12;fontColor=#5C5C5C;align=center;strokeColor=#006658;metaEdit=1;points=[[0.5,0,0],[1,0.25,0],[1,0.5,0],[1,0.75,0],[0.5,1,0],[0,0.75,0],[0,0.5,0],[0,0.25,0]];resizable=0;arcSize=5;fillStyle=auto;rotation=0;" vertex="1" parent="1">
            <mxGeometry x="-1320" y="360" width="200" height="170" as="geometry" />
          </mxCell>
        </object>
        <mxCell id="3M1BN86w53qEPDXQvwi6-37" style="edgeStyle=orthogonalEdgeStyle;rounded=0;orthogonalLoop=1;jettySize=auto;html=1;fontSize=23;fontColor=#5C5C5C;strokeColor=#006658;fillColor=#21C0A5;strokeWidth=2;" edge="1" parent="1" source="3M1BN86w53qEPDXQvwi6-12" target="3M1BN86w53qEPDXQvwi6-21">
          <mxGeometry relative="1" as="geometry" />
        </mxCell>
        <object placeholders="1" c4Type="life-public-journey-ms" c4Container="life-public-journey-ms" c4Technology="netcore" c4Description="life-public-journey-ms" label="&lt;font style=&quot;font-size: 16px&quot;&gt;&lt;b&gt;%c4Type%&lt;/font&gt;&lt;div&gt;[%c4Container%:&amp;nbsp;%c4Technology%]&lt;/div&gt;&lt;br&gt;&lt;div&gt;&lt;font style=&quot;font-size: 11px&quot;&gt;&lt;font color=&quot;#E6E6E6&quot;&gt;%c4Description%&lt;/font&gt;&lt;/div&gt;" id="3M1BN86w53qEPDXQvwi6-12">
          <mxCell style="shape=hexagon;size=50;perimeter=hexagonPerimeter2;whiteSpace=wrap;html=1;fixedSize=1;rounded=1;labelBackgroundColor=none;fillColor=#C3ABD0;fontSize=12;fontColor=#5C5C5C;align=center;strokeColor=#006658;metaEdit=1;points=[[0.5,0,0],[1,0.25,0],[1,0.5,0],[1,0.75,0],[0.5,1,0],[0,0.75,0],[0,0.5,0],[0,0.25,0]];resizable=0;arcSize=5;fillStyle=auto;" vertex="1" parent="1">
            <mxGeometry x="-956" y="-30" width="200" height="170" as="geometry" />
          </mxCell>
        </object>
        <object placeholders="1" c4Type="life-serverless-app" c4Container="life-serverless-app" c4Technology="netcore" c4Description="life-serverless-app" label="&lt;font style=&quot;font-size: 16px&quot;&gt;&lt;b&gt;%c4Type%&lt;/font&gt;&lt;div&gt;[%c4Container%:&amp;nbsp;%c4Technology%]&lt;/div&gt;&lt;br&gt;&lt;div&gt;&lt;font style=&quot;font-size: 11px&quot;&gt;&lt;font color=&quot;#E6E6E6&quot;&gt;%c4Description%&lt;/font&gt;&lt;/div&gt;" id="3M1BN86w53qEPDXQvwi6-14">
          <mxCell style="shape=hexagon;size=50;perimeter=hexagonPerimeter2;whiteSpace=wrap;html=1;fixedSize=1;rounded=1;labelBackgroundColor=none;fillColor=#21C0A5;fontSize=12;fontColor=#5C5C5C;align=center;strokeColor=#006658;metaEdit=1;points=[[0.5,0,0],[1,0.25,0],[1,0.5,0],[1,0.75,0],[0.5,1,0],[0,0.75,0],[0,0.5,0],[0,0.25,0]];resizable=0;arcSize=5;fillStyle=auto;rotation=0;" vertex="1" parent="1">
            <mxGeometry x="-525" y="1080" width="200" height="170" as="geometry" />
          </mxCell>
        </object>
        <mxCell id="3M1BN86w53qEPDXQvwi6-48" style="edgeStyle=orthogonalEdgeStyle;rounded=0;orthogonalLoop=1;jettySize=auto;html=1;fontSize=23;fontColor=#5C5C5C;strokeColor=#006658;strokeWidth=1;fillColor=#21C0A5;" edge="1" parent="1" source="3M1BN86w53qEPDXQvwi6-15" target="3M1BN86w53qEPDXQvwi6-47">
          <mxGeometry relative="1" as="geometry" />
        </mxCell>
        <object placeholders="1" c4Type="life-signup-request-ms" c4Container="life-signup-request-ms" c4Technology="netcore" c4Description="life-signup-request-ms" label="&lt;font style=&quot;font-size: 16px&quot;&gt;&lt;b&gt;%c4Type%&lt;/font&gt;&lt;div&gt;[%c4Container%:&amp;nbsp;%c4Technology%]&lt;/div&gt;&lt;br&gt;&lt;div&gt;&lt;font style=&quot;font-size: 11px&quot;&gt;&lt;font color=&quot;#E6E6E6&quot;&gt;%c4Description%&lt;/font&gt;&lt;/div&gt;" id="3M1BN86w53qEPDXQvwi6-15">
          <mxCell style="shape=hexagon;size=50;perimeter=hexagonPerimeter2;whiteSpace=wrap;html=1;fixedSize=1;rounded=1;labelBackgroundColor=none;fillColor=#7EA6E0;fontSize=12;fontColor=#5C5C5C;align=center;strokeColor=#006658;metaEdit=1;points=[[0.5,0,0],[1,0.25,0],[1,0.5,0],[1,0.75,0],[0.5,1,0],[0,0.75,0],[0,0.5,0],[0,0.25,0]];resizable=0;arcSize=5;fillStyle=auto;rotation=0;" vertex="1" parent="1">
            <mxGeometry x="-76" y="720" width="200" height="170" as="geometry" />
          </mxCell>
        </object>
        <mxCell id="3M1BN86w53qEPDXQvwi6-16" value="" style="shape=image;html=1;verticalAlign=top;verticalLabelPosition=bottom;labelBackgroundColor=#ffffff;imageAspect=0;aspect=fixed;image=https://cdn1.iconfinder.com/data/icons/unicons-line-vol-5/24/react-128.png;fontColor=#5C5C5C;strokeColor=#006658;fillColor=#7EA6E0;" vertex="1" parent="1">
          <mxGeometry x="-1690" y="-363" width="128" height="128" as="geometry" />
        </mxCell>
        <object placeholders="1" c4Type="dev-life-web" c4Container="dev-life-web" c4Technology="next js" c4Description="dev-life-web" label="&lt;font style=&quot;font-size: 16px&quot;&gt;&lt;b&gt;%c4Type%&lt;/font&gt;&lt;div&gt;[%c4Container%:&amp;nbsp;%c4Technology%]&lt;/div&gt;&lt;br&gt;&lt;div&gt;&lt;font style=&quot;font-size: 11px&quot;&gt;&lt;font color=&quot;#E6E6E6&quot;&gt;%c4Description%&lt;/font&gt;&lt;/div&gt;" id="3M1BN86w53qEPDXQvwi6-17">
          <mxCell style="shape=hexagon;size=50;perimeter=hexagonPerimeter2;whiteSpace=wrap;html=1;fixedSize=1;rounded=1;labelBackgroundColor=none;fillColor=#F19C99;fontSize=12;align=center;strokeColor=#b85450;metaEdit=1;points=[[0.5,0,0],[1,0.25,0],[1,0.5,0],[1,0.75,0],[0.5,1,0],[0,0.75,0],[0,0.5,0],[0,0.25,0]];resizable=0;arcSize=5;fillStyle=auto;" vertex="1" parent="1">
            <mxGeometry x="-970" y="-380" width="200" height="170" as="geometry" />
          </mxCell>
        </object>
        <object placeholders="1" c4Type="dev-life-web-admin" c4Container="dev-life-web-admin" c4Technology="next js" c4Description="dev-life-web-admin" label="&lt;font style=&quot;font-size: 16px&quot;&gt;&lt;b&gt;%c4Type%&lt;/font&gt;&lt;div&gt;[%c4Container%:&amp;nbsp;%c4Technology%]&lt;/div&gt;&lt;br&gt;&lt;div&gt;&lt;font style=&quot;font-size: 11px&quot;&gt;&lt;font color=&quot;#E6E6E6&quot;&gt;%c4Description%&lt;/font&gt;&lt;/div&gt;" id="3M1BN86w53qEPDXQvwi6-18">
          <mxCell style="shape=hexagon;size=50;perimeter=hexagonPerimeter2;whiteSpace=wrap;html=1;fixedSize=1;rounded=1;labelBackgroundColor=none;fillColor=#F19C99;fontSize=12;fontColor=#5C5C5C;align=center;strokeColor=#006658;metaEdit=1;points=[[0.5,0,0],[1,0.25,0],[1,0.5,0],[1,0.75,0],[0.5,1,0],[0,0.75,0],[0,0.5,0],[0,0.25,0]];resizable=0;arcSize=5;fillStyle=auto;" vertex="1" parent="1">
            <mxGeometry x="-90" y="-380" width="200" height="170" as="geometry" />
          </mxCell>
        </object>
        <mxCell id="3M1BN86w53qEPDXQvwi6-38" style="edgeStyle=orthogonalEdgeStyle;rounded=0;orthogonalLoop=1;jettySize=auto;html=1;entryX=0.5;entryY=0;entryDx=0;entryDy=0;entryPerimeter=0;fontSize=23;fontColor=#5C5C5C;strokeColor=#006658;fillColor=#21C0A5;strokeWidth=3;" edge="1" parent="1" source="3M1BN86w53qEPDXQvwi6-21" target="3M1BN86w53qEPDXQvwi6-9">
          <mxGeometry relative="1" as="geometry" />
        </mxCell>
        <mxCell id="3M1BN86w53qEPDXQvwi6-39" style="edgeStyle=orthogonalEdgeStyle;rounded=0;orthogonalLoop=1;jettySize=auto;html=1;entryX=0.5;entryY=0;entryDx=0;entryDy=0;entryPerimeter=0;fontSize=23;fontColor=#5C5C5C;strokeColor=#006658;fillColor=#21C0A5;strokeWidth=3;" edge="1" parent="1" source="3M1BN86w53qEPDXQvwi6-21" target="3M1BN86w53qEPDXQvwi6-10">
          <mxGeometry relative="1" as="geometry" />
        </mxCell>
        <mxCell id="3M1BN86w53qEPDXQvwi6-21" value="" style="sketch=0;outlineConnect=0;fontColor=#232F3E;gradientColor=none;fillColor=#3F8624;strokeColor=none;dashed=0;verticalLabelPosition=bottom;verticalAlign=top;align=center;html=1;fontSize=12;fontStyle=0;aspect=fixed;pointerEvents=1;shape=mxgraph.aws4.factory;" vertex="1" parent="1">
          <mxGeometry x="-880" y="230" width="48" height="48" as="geometry" />
        </mxCell>
        <mxCell id="3M1BN86w53qEPDXQvwi6-28" value="" style="edgeStyle=orthogonalEdgeStyle;rounded=0;orthogonalLoop=1;jettySize=auto;html=1;fontSize=23;fontColor=#5C5C5C;strokeColor=#006658;fillColor=#21C0A5;" edge="1" parent="1" source="3M1BN86w53qEPDXQvwi6-22" target="3M1BN86w53qEPDXQvwi6-27">
          <mxGeometry relative="1" as="geometry" />
        </mxCell>
        <mxCell id="3M1BN86w53qEPDXQvwi6-22" value="" style="shape=image;verticalLabelPosition=bottom;labelBackgroundColor=#ffffff;verticalAlign=top;aspect=fixed;imageAspect=0;image=data:image/svg+xml,PHN2ZyB4bWxuczpkYz0iaHR0cDovL3B1cmwub3JnL2RjL2VsZW1lbnRzLzEuMS8iIHhtbG5zOmNjPSJodHRwOi8vY3JlYXRpdmVjb21tb25zLm9yZy9ucyMiIHhtbG5zOnJkZj0iaHR0cDovL3d3dy53My5vcmcvMTk5OS8wMi8yMi1yZGYtc3ludGF4LW5zIyIgeG1sbnM6c3ZnPSJodHRwOi8vd3d3LnczLm9yZy8yMDAwL3N2ZyIgeG1sbnM9Imh0dHA6Ly93d3cudzMub3JnLzIwMDAvc3ZnIiB4bWxuczpzb2RpcG9kaT0iaHR0cDovL3NvZGlwb2RpLnNvdXJjZWZvcmdlLm5ldC9EVEQvc29kaXBvZGktMC5kdGQiIHhtbG5zOmlua3NjYXBlPSJodHRwOi8vd3d3Lmlua3NjYXBlLm9yZy9uYW1lc3BhY2VzL2lua3NjYXBlIiB2ZXJzaW9uPSIxLjEiIGlkPSJzdmc1Njg2MSIgaW5rc2NhcGU6dmVyc2lvbj0iMC45Mi4zICgyNDA1NTQ2LCAyMDE4LTAzLTExKSIgc29kaXBvZGk6ZG9jbmFtZT0iYXp1cmVfZGF0YV9mYWN0b3J5LnN2ZyIgeD0iMHB4IiB5PSIwcHgiIHZpZXdCb3g9IjAgMCAxMDAuMSA5OS45IiB4bWw6c3BhY2U9InByZXNlcnZlIiB3aWR0aD0iMTAwLjEiIGhlaWdodD0iOTkuOTAwMDAyIj48bWV0YWRhdGEgaWQ9Im1ldGFkYXRhNjgyMyI+PHJkZjpSREY+PGNjOldvcmsgcmRmOmFib3V0PSIiPjxkYzpmb3JtYXQ+aW1hZ2Uvc3ZnK3htbDwvZGM6Zm9ybWF0PjxkYzp0eXBlIHJkZjpyZXNvdXJjZT0iaHR0cDovL3B1cmwub3JnL2RjL2RjbWl0eXBlL1N0aWxsSW1hZ2UiLz48ZGM6dGl0bGUvPjwvY2M6V29yaz48L3JkZjpSREY+PC9tZXRhZGF0YT48ZGVmcyBpZD0iZGVmczY4MjEiLz4mI3hhOzxmaWx0ZXIgaWQ9ImZpbHRlcl8yIj4mI3hhOwk8ZmVHYXVzc2lhbkJsdXIgaWQ9ImZlR2F1c3NpYW5CbHVyNTY4MTAiIHN0ZERldmlhdGlvbj0iMiIvPiYjeGE7PC9maWx0ZXI+JiN4YTs8c29kaXBvZGk6bmFtZWR2aWV3IGJvcmRlcmNvbG9yPSIjNjY2NjY2IiBib3JkZXJvcGFjaXR5PSIxIiBmaXQtbWFyZ2luLWJvdHRvbT0iMCIgZml0LW1hcmdpbi1sZWZ0PSIwIiBmaXQtbWFyZ2luLXJpZ2h0PSIwIiBmaXQtbWFyZ2luLXRvcD0iMCIgZ3JpZHRvbGVyYW5jZT0iMTAiIGd1aWRldG9sZXJhbmNlPSIxMCIgaWQ9Im5hbWVkdmlldzU2ODYzIiBpbmtzY2FwZTpjdXJyZW50LWxheWVyPSJzdmc1Njg2MSIgaW5rc2NhcGU6Y3g9Ii0yMi41MTIwNzIiIGlua3NjYXBlOmN5PSI1Ni44MTcyNzkiIGlua3NjYXBlOnBhZ2VvcGFjaXR5PSIwIiBpbmtzY2FwZTpwYWdlc2hhZG93PSIyIiBpbmtzY2FwZTp3aW5kb3ctaGVpZ2h0PSIxMDE3IiBpbmtzY2FwZTp3aW5kb3ctbWF4aW1pemVkPSIxIiBpbmtzY2FwZTp3aW5kb3ctd2lkdGg9IjE5MjAiIGlua3NjYXBlOndpbmRvdy14PSItOCIgaW5rc2NhcGU6d2luZG93LXk9Ii04IiBpbmtzY2FwZTp6b29tPSIzLjY5Njc5MDciIG9iamVjdHRvbGVyYW5jZT0iMTAiIHBhZ2Vjb2xvcj0iI2ZmZmZmZiIgc2hvd2dyaWQ9ImZhbHNlIj4mI3hhOwk8L3NvZGlwb2RpOm5hbWVkdmlldz4mI3hhOyYjeGE7PHBhdGggaWQ9InBhdGg1NjgyMyIgaW5rc2NhcGU6Y29ubmVjdG9yLWN1cnZhdHVyZT0iMCIgc3R5bGU9ImZpbGw6IzU5YjRkOSIgZD0iTSA5OS45LDU4Ljg2IFYgMzQuNjMgTCA3Mi40Nyw1OC40NiBoIC0wLjYgViAzNC42MyBMIDQ0LjQ0LDU4LjQ2IFYgOC42MSBDIDQ0LjQ0LDQuNCAzNS4wMywwLjIgMjIuNjIsMC4yIDEwLjIxLDAuMiAwLDQuMiAwLDguNjEgViA5OS45IEggMTAwLjEgWiBNIDIyLjYyLDEyLjYxIGMgLTkuMDEsMCAtMTYuMjEsLTIuMiAtMTYuMjEsLTQuNiAwLC0yLjQgNy4yLC00LjYxIDE2LjIxLC00LjYxIDkuMDEsMCAxNi4yMiwyLjAxIDE2LjIyLDQuNjEgLTAuMiwyLjQgLTcuNDEsNC42IC0xNi4yMiw0LjYgeiBNIDY5Ljg3LDgzLjY4IEggNTguODYgViA3Mi42NyBoIDExLjAxIHogbSAtMTkuNDIsMCBIIDM5LjQ0IFYgNzIuNjcgaCAxMS4wMSB6IG0gMjguMDMsMCBWIDcyLjY3IGggMTEuMDEgdiAxMS4wMSB6Ii8+JiN4YTsmI3hhOzxyZWN0IGlkPSJyZWN0NTY4MzEiIHg9IjAiIHk9IjguMDEwMDAwMiIgc3R5bGU9ImZpbGw6IzM5OTljNiIgd2lkdGg9IjIyLjIxOTk5OSIgaGVpZ2h0PSI5MS44ODk5OTkiLz4mI3hhOyYjeGE7PHBhdGggaWQ9InBhdGg1NjgzOSIgaW5rc2NhcGU6Y29ubmVjdG9yLWN1cnZhdHVyZT0iMCIgc3R5bGU9ImZpbGw6I2ZmZmZmZiIgZD0ibSA0NC4yNCw4LjAxIGMgMCw0LjQgLTEwLjAxLDguMDEgLTIyLjIyLDguMDEgQyA5LjgxLDE2LjAyIDAsMTIuNDEgMCw4LjAxIDAsMy42IDEwLjAxLDAgMjIuMjIsMCAzNC40MywwIDQ0LjI0LDMuNCA0NC4yNCw4LjAxIFoiLz4mI3hhOyYjeGE7PHBhdGggaWQ9InBhdGg1Njg0NyIgaW5rc2NhcGU6Y29ubmVjdG9yLWN1cnZhdHVyZT0iMCIgc3R5bGU9ImZpbGw6IzdmYmEwMCIgZD0ibSAzOS44Myw3LjQxIGMgMCwzIC03LjgsNS4yMSAtMTcuNjEsNS4yMSAtOS44MSwwIC0xNy42MiwtMi4yMSAtMTcuNjIsLTUuMjEgMCwtMyA3LjgxLC01LjIgMTcuNjIsLTUuMiA5LjgxLDAgMTcuNjEsMi40IDE3LjYxLDUuMiB6Ii8+JiN4YTsmI3hhOzxwYXRoIGlkPSJwYXRoNTY4NTUiIGlua3NjYXBlOmNvbm5lY3Rvci1jdXJ2YXR1cmU9IjAiIHN0eWxlPSJmaWxsOiNiOGQ0MzIiIGQ9Im0gMzYuMDMsMTAuNjEgYyAyLjQsLTAuOCAzLjYsLTIgMy42LC0zLjIxIDAsLTMgLTcuOCwtNS4yIC0xNy42MSwtNS4yIEMgMTIuMjEsMi4yIDQuNCw0LjYgNC40LDcuNCA0LjYsOC42MSA2LDkuODEgOC4yLDEwLjYxIGMgMy4yMSwtMS4yIDguMjEsLTIgMTQuMDIsLTIgNS42LDAgMTAuNjEsMC44IDEzLjgxLDIgeiIvPiYjeGE7PC9zdmc+;fontSize=23;fontColor=#5C5C5C;strokeColor=#006658;fillColor=#F19C99;" vertex="1" parent="1">
          <mxGeometry x="-2540" y="-245" width="90" height="90" as="geometry" />
        </mxCell>
        <mxCell id="3M1BN86w53qEPDXQvwi6-26" style="edgeStyle=orthogonalEdgeStyle;rounded=0;orthogonalLoop=1;jettySize=auto;html=1;entryX=0;entryY=0.5;entryDx=0;entryDy=0;fontSize=23;fontColor=#5C5C5C;strokeColor=#006658;fillColor=#21C0A5;" edge="1" parent="1" source="3M1BN86w53qEPDXQvwi6-23" target="3M1BN86w53qEPDXQvwi6-22">
          <mxGeometry relative="1" as="geometry" />
        </mxCell>
        <mxCell id="3M1BN86w53qEPDXQvwi6-23" value="Producto" style="ellipse;whiteSpace=wrap;html=1;fontSize=23;fontColor=#5C5C5C;strokeColor=#006658;fillColor=#F19C99;" vertex="1" parent="1">
          <mxGeometry x="-2840" y="-240" width="120" height="80" as="geometry" />
        </mxCell>
        <mxCell id="3M1BN86w53qEPDXQvwi6-24" value="14B" style="text;html=1;strokeColor=none;fillColor=none;align=center;verticalAlign=middle;whiteSpace=wrap;rounded=0;fontSize=23;fontColor=#5C5C5C;" vertex="1" parent="1">
          <mxGeometry x="-2860" y="-140" width="60" height="30" as="geometry" />
        </mxCell>
        <mxCell id="3M1BN86w53qEPDXQvwi6-25" value="60B" style="text;html=1;strokeColor=none;fillColor=none;align=center;verticalAlign=middle;whiteSpace=wrap;rounded=0;fontSize=23;fontColor=#5C5C5C;" vertex="1" parent="1">
          <mxGeometry x="-2770" y="-140" width="60" height="30" as="geometry" />
        </mxCell>
        <mxCell id="3M1BN86w53qEPDXQvwi6-30" value="" style="edgeStyle=orthogonalEdgeStyle;rounded=0;orthogonalLoop=1;jettySize=auto;html=1;fontSize=23;fontColor=#5C5C5C;strokeColor=#006658;fillColor=#21C0A5;" edge="1" parent="1" source="3M1BN86w53qEPDXQvwi6-27" target="3M1BN86w53qEPDXQvwi6-29">
          <mxGeometry relative="1" as="geometry" />
        </mxCell>
        <mxCell id="3M1BN86w53qEPDXQvwi6-32" value="" style="edgeStyle=orthogonalEdgeStyle;rounded=0;orthogonalLoop=1;jettySize=auto;html=1;fontSize=23;fontColor=#5C5C5C;strokeColor=#006658;fillColor=#21C0A5;" edge="1" parent="1" source="3M1BN86w53qEPDXQvwi6-27" target="3M1BN86w53qEPDXQvwi6-31">
          <mxGeometry relative="1" as="geometry" />
        </mxCell>
        <mxCell id="3M1BN86w53qEPDXQvwi6-27" value="" style="rhombus;whiteSpace=wrap;html=1;fontSize=23;verticalAlign=top;fillColor=#F19C99;strokeColor=#006658;fontColor=#5C5C5C;labelBackgroundColor=#ffffff;" vertex="1" parent="1">
          <mxGeometry x="-2365" y="-240" width="80" height="80" as="geometry" />
        </mxCell>
        <mxCell id="3M1BN86w53qEPDXQvwi6-29" value="ATP" style="whiteSpace=wrap;html=1;fontSize=23;verticalAlign=top;fillColor=#F19C99;strokeColor=#006658;fontColor=#5C5C5C;labelBackgroundColor=#ffffff;" vertex="1" parent="1">
          <mxGeometry x="-2385" y="-390" width="120" height="60" as="geometry" />
        </mxCell>
        <mxCell id="3M1BN86w53qEPDXQvwi6-31" value="VIDA" style="whiteSpace=wrap;html=1;fontSize=23;verticalAlign=top;fillColor=#F19C99;strokeColor=#006658;fontColor=#5C5C5C;labelBackgroundColor=#ffffff;" vertex="1" parent="1">
          <mxGeometry x="-2385" y="-70" width="120" height="60" as="geometry" />
        </mxCell>
        <mxCell id="3M1BN86w53qEPDXQvwi6-33" value="" style="rounded=1;whiteSpace=wrap;html=1;fontSize=23;fontColor=#5C5C5C;strokeColor=#006658;fillColor=#F19C99;" vertex="1" parent="1">
          <mxGeometry x="-2170" y="-100" width="120" height="60" as="geometry" />
        </mxCell>
        <mxCell id="3M1BN86w53qEPDXQvwi6-34" value="" style="rounded=0;whiteSpace=wrap;html=1;fontSize=23;fontColor=#5C5C5C;strokeColor=#006658;fillColor=#F19C99;" vertex="1" parent="1">
          <mxGeometry x="-2160" y="-226" width="120" height="60" as="geometry" />
        </mxCell>
        <mxCell id="3M1BN86w53qEPDXQvwi6-36" value="" style="sketch=0;outlineConnect=0;fontColor=#232F3E;gradientColor=none;fillColor=#3F8624;strokeColor=none;dashed=0;verticalLabelPosition=bottom;verticalAlign=top;align=center;html=1;fontSize=12;fontStyle=0;aspect=fixed;pointerEvents=1;shape=mxgraph.aws4.factory;" vertex="1" parent="1">
          <mxGeometry x="-2869" y="-399" width="78" height="78" as="geometry" />
        </mxCell>
        <mxCell id="3M1BN86w53qEPDXQvwi6-45" style="edgeStyle=orthogonalEdgeStyle;rounded=0;orthogonalLoop=1;jettySize=auto;html=1;entryX=0.727;entryY=-0.006;entryDx=0;entryDy=0;entryPerimeter=0;fontSize=23;fontColor=#5C5C5C;strokeColor=#006658;strokeWidth=3;fillColor=#21C0A5;" edge="1" parent="1" source="3M1BN86w53qEPDXQvwi6-40" target="3M1BN86w53qEPDXQvwi6-10">
          <mxGeometry relative="1" as="geometry" />
        </mxCell>
        <mxCell id="3M1BN86w53qEPDXQvwi6-40" value="" style="sketch=0;outlineConnect=0;fontColor=#232F3E;gradientColor=none;fillColor=#3F8624;strokeColor=none;dashed=0;verticalLabelPosition=bottom;verticalAlign=top;align=center;html=1;fontSize=12;fontStyle=0;aspect=fixed;pointerEvents=1;shape=mxgraph.aws4.factory;" vertex="1" parent="1">
          <mxGeometry x="-24" y="230" width="48" height="48" as="geometry" />
        </mxCell>
        <mxCell id="3M1BN86w53qEPDXQvwi6-49" style="edgeStyle=orthogonalEdgeStyle;rounded=0;orthogonalLoop=1;jettySize=auto;html=1;fontSize=23;fontColor=#5C5C5C;strokeColor=#006658;strokeWidth=3;fillColor=#21C0A5;" edge="1" parent="1" source="3M1BN86w53qEPDXQvwi6-47" target="3M1BN86w53qEPDXQvwi6-9">
          <mxGeometry relative="1" as="geometry" />
        </mxCell>
        <mxCell id="3M1BN86w53qEPDXQvwi6-50" style="edgeStyle=orthogonalEdgeStyle;rounded=0;orthogonalLoop=1;jettySize=auto;html=1;entryX=0.5;entryY=1;entryDx=0;entryDy=0;entryPerimeter=0;fontSize=23;fontColor=#5C5C5C;strokeColor=#006658;strokeWidth=3;fillColor=#21C0A5;" edge="1" parent="1" source="3M1BN86w53qEPDXQvwi6-47" target="3M1BN86w53qEPDXQvwi6-10">
          <mxGeometry relative="1" as="geometry" />
        </mxCell>
        <mxCell id="3M1BN86w53qEPDXQvwi6-47" value="" style="sketch=0;outlineConnect=0;fontColor=#232F3E;gradientColor=none;fillColor=#3F8624;strokeColor=none;dashed=0;verticalLabelPosition=bottom;verticalAlign=top;align=center;html=1;fontSize=12;fontStyle=0;aspect=fixed;pointerEvents=1;shape=mxgraph.aws4.factory;" vertex="1" parent="1">
          <mxGeometry y="602" width="48" height="48" as="geometry" />
        </mxCell>
        <mxCell id="3M1BN86w53qEPDXQvwi6-56" style="edgeStyle=orthogonalEdgeStyle;rounded=0;orthogonalLoop=1;jettySize=auto;html=1;fontSize=23;fontColor=#5C5C5C;strokeColor=#006658;strokeWidth=2;fillColor=#21C0A5;" edge="1" parent="1" source="3M1BN86w53qEPDXQvwi6-54">
          <mxGeometry relative="1" as="geometry">
            <mxPoint x="-860" y="540" as="targetPoint" />
          </mxGeometry>
        </mxCell>
        <mxCell id="3M1BN86w53qEPDXQvwi6-57" style="edgeStyle=orthogonalEdgeStyle;rounded=0;orthogonalLoop=1;jettySize=auto;html=1;fontSize=23;fontColor=#5C5C5C;strokeColor=#006658;strokeWidth=2;fillColor=#21C0A5;" edge="1" parent="1" source="3M1BN86w53qEPDXQvwi6-54">
          <mxGeometry relative="1" as="geometry">
            <mxPoint x="-460" y="550" as="targetPoint" />
          </mxGeometry>
        </mxCell>
        <mxCell id="3M1BN86w53qEPDXQvwi6-54" value="" style="sketch=0;outlineConnect=0;fontColor=#232F3E;gradientColor=none;fillColor=#3F8624;strokeColor=none;dashed=0;verticalLabelPosition=bottom;verticalAlign=top;align=center;html=1;fontSize=12;fontStyle=0;aspect=fixed;pointerEvents=1;shape=mxgraph.aws4.factory;" vertex="1" parent="1">
          <mxGeometry x="-1399" y="990" width="48" height="48" as="geometry" />
        </mxCell>
        <mxCell id="3M1BN86w53qEPDXQvwi6-59" value="" style="shape=image;verticalLabelPosition=bottom;labelBackgroundColor=#ffffff;verticalAlign=top;aspect=fixed;imageAspect=0;image=data:image/svg+xml,PHN2ZyB4bWxuczpkYz0iaHR0cDovL3B1cmwub3JnL2RjL2VsZW1lbnRzLzEuMS8iIHhtbG5zOmNjPSJodHRwOi8vY3JlYXRpdmVjb21tb25zLm9yZy9ucyMiIHhtbG5zOnJkZj0iaHR0cDovL3d3dy53My5vcmcvMTk5OS8wMi8yMi1yZGYtc3ludGF4LW5zIyIgeG1sbnM6c3ZnPSJodHRwOi8vd3d3LnczLm9yZy8yMDAwL3N2ZyIgeG1sbnM9Imh0dHA6Ly93d3cudzMub3JnLzIwMDAvc3ZnIiB4bWxuczpzb2RpcG9kaT0iaHR0cDovL3NvZGlwb2RpLnNvdXJjZWZvcmdlLm5ldC9EVEQvc29kaXBvZGktMC5kdGQiIHhtbG5zOmlua3NjYXBlPSJodHRwOi8vd3d3Lmlua3NjYXBlLm9yZy9uYW1lc3BhY2VzL2lua3NjYXBlIiB2ZXJzaW9uPSIxLjEiIGlkPSJzdmcxMTEyNyIgaW5rc2NhcGU6dmVyc2lvbj0iMC45Mi4zICgyNDA1NTQ2LCAyMDE4LTAzLTExKSIgc29kaXBvZGk6ZG9jbmFtZT0id2ViX2FwcHMuc3ZnIiB4PSIwcHgiIHk9IjBweCIgdmlld0JveD0iMCAwIDUxLjAyOTMxNiA1MS4wMTk5OTkiIHhtbDpzcGFjZT0icHJlc2VydmUiIHdpZHRoPSI1MS4wMjkzMTYiIGhlaWdodD0iNTEuMDIiPjxtZXRhZGF0YSBpZD0ibWV0YWRhdGExMjM5MiI+PHJkZjpSREY+PGNjOldvcmsgcmRmOmFib3V0PSIiPjxkYzpmb3JtYXQ+aW1hZ2Uvc3ZnK3htbDwvZGM6Zm9ybWF0PjxkYzp0eXBlIHJkZjpyZXNvdXJjZT0iaHR0cDovL3B1cmwub3JnL2RjL2RjbWl0eXBlL1N0aWxsSW1hZ2UiLz48ZGM6dGl0bGUvPjwvY2M6V29yaz48L3JkZjpSREY+PC9tZXRhZGF0YT48ZGVmcyBpZD0iZGVmczEyMzkwIj4mI3hhOwkmI3hhOwkmI3hhOyYjeGE7CQkmI3hhOwkJJiN4YTsJCSYjeGE7CSYjeGE7CQkJJiN4YTsJCQkmI3hhOwkJCSYjeGE7CQkmI3hhOwkJCSYjeGE7CQkJJiN4YTsJCQkmI3hhOwkJJiN4YTsJCQkJJiN4YTsJCQkmI3hhOwkJCQkmI3hhOwkJCSYjeGE7CQkJCQkmI3hhOwkJCQkmI3hhOwkJCQkJJiN4YTsJCQkJPC9kZWZzPiYjeGE7PGZpbHRlciBpZD0iZmlsdGVyXzIiPiYjeGE7CTxmZUdhdXNzaWFuQmx1ciBpZD0iZmVHYXVzc2lhbkJsdXIxMTEwMCIgc3RkRGV2aWF0aW9uPSIyIi8+JiN4YTs8L2ZpbHRlcj4mI3hhOzxzb2RpcG9kaTpuYW1lZHZpZXcgYm9yZGVyY29sb3I9IiM2NjY2NjYiIGJvcmRlcm9wYWNpdHk9IjEiIGZpdC1tYXJnaW4tYm90dG9tPSIwIiBmaXQtbWFyZ2luLWxlZnQ9IjAiIGZpdC1tYXJnaW4tcmlnaHQ9IjAiIGZpdC1tYXJnaW4tdG9wPSIwIiBncmlkdG9sZXJhbmNlPSIxMCIgZ3VpZGV0b2xlcmFuY2U9IjEwIiBpZD0ibmFtZWR2aWV3MTExMjkiIGlua3NjYXBlOmN1cnJlbnQtbGF5ZXI9InN2ZzExMTI3IiBpbmtzY2FwZTpjeD0iMzQuNTc5OTYxIiBpbmtzY2FwZTpjeT0iMzMuNzcwNzQ2IiBpbmtzY2FwZTpwYWdlb3BhY2l0eT0iMCIgaW5rc2NhcGU6cGFnZXNoYWRvdz0iMiIgaW5rc2NhcGU6d2luZG93LWhlaWdodD0iMTAxNyIgaW5rc2NhcGU6d2luZG93LW1heGltaXplZD0iMSIgaW5rc2NhcGU6d2luZG93LXdpZHRoPSIxOTIwIiBpbmtzY2FwZTp3aW5kb3cteD0iLTgiIGlua3NjYXBlOndpbmRvdy15PSItOCIgaW5rc2NhcGU6em9vbT0iOC42MTMxNjY5IiBvYmplY3R0b2xlcmFuY2U9IjEwIiBwYWdlY29sb3I9IiNmZmZmZmYiIHNob3dncmlkPSJmYWxzZSI+JiN4YTsJPC9zb2RpcG9kaTpuYW1lZHZpZXc+JiN4YTs8cGF0aCBkPSJtIDQxLjAxNDUyNiw0NS43NiBjIC00LjYyLDMuNTMgLTEwLjA3LDUuMjYgLTE1LjQ3LDUuMjYgLTcuNjgsMCAtMTUuMjcsLTMuNDUgLTIwLjI3OTk5OTYsLTEwLjAxIEMgLTMuMzA1NDc0LDI5LjgyIC0xLjE5NTQ3NCwxMy44MyAxMC4wMTQ1MjYsNS4yNSBjIDQuNjIsLTMuNTUgMTAuMDgsLTUuMjUgMTUuNDgsLTUuMjUgNy42NywwIDE1LjI2LDMuNDUgMjAuMjgsMTAuMDEgOC41NywxMS4xOCA2LjQzLDI3LjE5IC00Ljc2LDM1Ljc1IHoiIHN0eWxlPSJmaWxsOiM1OWI0ZDkiIGlua3NjYXBlOmNvbm5lY3Rvci1jdXJ2YXR1cmU9IjAiIGlkPSJwYXRoMTExMTMiLz48cGF0aCBkPSJtIDM2LjMzMTI3NiwyOS45ODI5NyBjIDEuODUsMi40MSA1LjI5LDIuODUgNy43LDEuMDIgMC4xMiwtMC4wOSAwLjIyLC0wLjIxIDAuMzMsLTAuMzEgMi40NiwxLjczIDQuMTcsMi44NyA1LjEzLDMuNTMgMC4yOCwtMC43NCAwLjQ4LC0xLjQ1IDAuNjgsLTIuMTkgLTEuMDEsLTAuNzYgLTIuMzksLTEuODEgLTQuMzcsLTMuNDIgMC42NSwtMS43MiAwLjQ0LC0zLjcyIC0wLjc1LC01LjI4IC0xLjcsLTIuMjEgLTQuNzIsLTIuNzcgLTcuMDgsLTEuNDEgLTIuNiwtMi4zMyAtNS40NSwtNSAtOC40NiwtNy45OSA5LjM1LC01LjAzIDE2LC00LjI5IDE2LC00LjI5IC0xLjExLC0xLjQyIC0yLjM2LC0yLjY2IC0zLjY4LC0zLjc4IC0zLjk1LC0wLjYxIC0xMC4wNywtMC41NCAtMTcuMDcsMy4xOSBsIC0wLjAxLC0wLjAxIHYgMCBjIC0yLjMzLC0yLjQ0IC00LjcxLC01LjA2IC03LjEyLC03Ljg3IC0xLjE2LDAuMzcgLTIuMjksMC44MyAtMy4zOCwxLjM4IDEuNzgsMi45MiA0LjE4LDUuODcgNi44OSw4Ljc0IDAsMC4wMSAwLjAxLDAuMDEgMC4wMiwwLjAyIC0yLjI2LDEuNTcgLTQuNzcsMy42OCAtNy4wOSw2LjEzIC0wLjMsMC4zMiAtMC41OCwwLjY0IC0wLjg2LDAuOTUgLTEuMzgsLTAuMjkgLTIuODQsLTAuMiAtNC4xOTk5OTk2LDAuMjkgLTIuMzEsLTQuOTggLTIuMTMsLTguOTkgLTEuNzYsLTExLjA1IC0xLDEuMDUgLTEuOTQsMi4xNSAtMi43NTAwMDA0LDMuMzMgLTAuNiwyLjQ3IC0wLjc3LDYuMDIgMS4wMTAwMDA0LDEwLjMgLTIuMDYwMDAwNCwyLjcgLTIuMTYwMDAwNCw2LjUyIC0wLjAxLDkuMzUgMC4xOCwwLjIzIDAuMzcsMC40NSAwLjU3LDAuNjUgLTAuOTQwMDAwNCwzLjIgLTEuMzYwMDAwNCw2LjI5IC0xLjQ5MDAwMDQsOC45NCAwLjI0LDAuMzMgMC4yNCwwLjYgMC40OCwwLjkyIDEuMjMwMDAwNCwxLjU3IDIuNzYwMDAwNCwyLjg5IDQuMjUwMDAwNCw0LjA5IC0wLjE4LC0yLjgxIDAuMDEsLTYuOTUgMS43NDk5OTk2LC0xMS42MSAxLjIsMC4wOSAyLjQxLC0wLjA5IDMuNTUsLTAuNTcgMC42NiwwLjU3IDEuMzQsMS4xNSAyLjA3LDEuNzQgMi41LDEuOTggNSwzLjUzIDcuNDMsNC43NCAtMC4xMiwxLjI0IDAuMTksMi41MiAwLjk5LDMuNTkgMS43MiwyLjIyIDQuOTEsMi42NCA3LjEzLDAuOTQgMC40NiwtMC4zNiAwLjgzLC0wLjc4IDEuMTMsLTEuMjQgMy45NywwLjg4IDcuNDQsMS4wNCAxMC4wMSwxLjA0IDAuMzksMCAyLjIyLC0yLjQ5IDMuMjYsLTQuMDMgLTEuNTYsMC4zMyAtNi4yLDAuOTcgLTEyLjU1LC0wLjg2IC0wLjE1LC0wLjcxIC0wLjQ0LC0xLjQgLTAuOTEsLTIuMDIgLTEuNjIsLTIuMTEgLTQuNTYsLTIuNTcgLTYuNzYsLTEuMTUgLTIuMiwtMS4yIC00LjUxLC0yLjcgLTYuODksLTQuNTkgLTAuNDgsLTAuMzggLTAuOTUsLTAuNzYgLTEuMzksLTEuMTQgMS40NSwtMi4yOSAxLjYxLC01LjIzIDAuMzIsLTcuNyAwLjMsLTAuMjkgMC41OCwtMC41OSAwLjg5LC0wLjg4IDIuMzYsLTIuMiA0LjU4LC0zLjk2IDYuNjYsLTUuMzggLTAuMDksLTAuMDggLTAuMTYsLTAuMTYgLTAuMjUsLTAuMjQgMC4wOSwwLjA4IDAuMTYsMC4xNiAwLjI1LDAuMjQgdiAwIGMgMy4xOCwyLjk0IDYuNTYsNS43MyA5Ljc2LDguMjMgLTAuODUsMS43OSAtMC43MiwzLjk4IDAuNTcsNS42NiB6IiBzdHlsZT0iZmlsbDojZmZmZmZmIiBpbmtzY2FwZTpjb25uZWN0b3ItY3VydmF0dXJlPSIwIiBpZD0icGF0aDExMTIxIi8+JiN4YTs8L3N2Zz4=;fontSize=23;fontColor=#5C5C5C;strokeColor=#006658;strokeWidth=1;fillColor=#F19C99;" vertex="1" parent="1">
          <mxGeometry x="790" y="-350" width="121" height="121" as="geometry" />
        </mxCell>
        <mxCell id="3M1BN86w53qEPDXQvwi6-60" value="" style="rounded=1;whiteSpace=wrap;html=1;fontColor=#333333;strokeColor=#666666;fillColor=#f5f5f5;" vertex="1" parent="1">
          <mxGeometry x="1890" y="-410" width="2710" height="230" as="geometry" />
        </mxCell>
        <mxCell id="3M1BN86w53qEPDXQvwi6-61" value="" style="rounded=1;whiteSpace=wrap;html=1;fontColor=#333333;strokeColor=#666666;fillColor=#f5f5f5;strokeWidth=1;" vertex="1" parent="1">
          <mxGeometry x="1910" y="1448" width="2710" height="230" as="geometry" />
        </mxCell>
        <mxCell id="3M1BN86w53qEPDXQvwi6-62" value="&lt;font style=&quot;font-size: 23px;&quot;&gt;SignupProcedure&lt;/font&gt;" style="rounded=1;whiteSpace=wrap;html=1;fontColor=#333333;strokeColor=#666666;fillColor=#f5f5f5;strokeWidth=1;" vertex="1" parent="1">
          <mxGeometry x="1910" y="1068" width="2710" height="230" as="geometry" />
        </mxCell>
        <mxCell id="3M1BN86w53qEPDXQvwi6-64" value="" style="rounded=1;whiteSpace=wrap;html=1;fontColor=#333333;strokeColor=#666666;fillColor=#f5f5f5;" vertex="1" parent="1">
          <mxGeometry x="1910" y="-60" width="2710" height="230" as="geometry" />
        </mxCell>
        <mxCell id="3M1BN86w53qEPDXQvwi6-65" style="edgeStyle=orthogonalEdgeStyle;rounded=0;orthogonalLoop=1;jettySize=auto;html=1;fontSize=23;fontColor=#5C5C5C;strokeColor=#006658;strokeWidth=2;fillColor=#21C0A5;entryX=0.5;entryY=0;entryDx=0;entryDy=0;entryPerimeter=0;" edge="1" parent="1" source="3M1BN86w53qEPDXQvwi6-66" target="3M1BN86w53qEPDXQvwi6-94">
          <mxGeometry relative="1" as="geometry">
            <mxPoint x="3610" y="229.99999999999955" as="targetPoint" />
            <Array as="points">
              <mxPoint x="3610" y="240" />
              <mxPoint x="2350" y="240" />
            </Array>
          </mxGeometry>
        </mxCell>
        <object placeholders="1" c4Type="life-journey-ms" c4Container="life-core-journey" c4Technology="netcore" c4Description="Journey" label="&lt;font style=&quot;font-size: 16px&quot;&gt;&lt;b&gt;%c4Type%&lt;/font&gt;&lt;div&gt;[%c4Container%:&amp;nbsp;%c4Technology%]&lt;/div&gt;&lt;br&gt;&lt;div&gt;&lt;font style=&quot;font-size: 11px&quot;&gt;&lt;font color=&quot;#E6E6E6&quot;&gt;%c4Description%&lt;/font&gt;&lt;/div&gt;" id="3M1BN86w53qEPDXQvwi6-66">
          <mxCell style="shape=hexagon;size=50;perimeter=hexagonPerimeter2;whiteSpace=wrap;html=1;fixedSize=1;rounded=1;labelBackgroundColor=none;fillColor=#C3ABD0;fontSize=12;fontColor=#5C5C5C;align=center;strokeColor=#006658;metaEdit=1;points=[[0.5,0,0],[1,0.25,0],[1,0.5,0],[1,0.75,0],[0.5,1,0],[0,0.75,0],[0,0.5,0],[0,0.25,0]];resizable=0;arcSize=5;fillStyle=auto;" vertex="1" parent="1">
            <mxGeometry x="3510" y="-30" width="200" height="170" as="geometry" />
          </mxCell>
        </object>
        <object placeholders="1" c4Type="life-core-operations-ms" c4Container="life-core-operations-ms" c4Technology="netcore" c4Description="core-operations-ms" label="&lt;font style=&quot;font-size: 16px&quot;&gt;&lt;b&gt;%c4Type%&lt;/font&gt;&lt;div&gt;[%c4Container%:&amp;nbsp;%c4Technology%]&lt;/div&gt;&lt;br&gt;&lt;div&gt;&lt;font style=&quot;font-size: 11px&quot;&gt;&lt;font color=&quot;#E6E6E6&quot;&gt;%c4Description%&lt;/font&gt;&lt;/div&gt;" id="3M1BN86w53qEPDXQvwi6-67">
          <mxCell style="shape=hexagon;size=50;perimeter=hexagonPerimeter2;whiteSpace=wrap;html=1;fixedSize=1;rounded=1;labelBackgroundColor=none;fillColor=#21C0A5;fontSize=12;fontColor=#5C5C5C;align=center;strokeColor=#006658;metaEdit=1;points=[[0.5,0,0],[1,0.25,0],[1,0.5,0],[1,0.75,0],[0.5,1,0],[0,0.75,0],[0,0.5,0],[0,0.25,0]];resizable=0;arcSize=5;fillStyle=auto;rotation=0;" vertex="1" parent="1">
            <mxGeometry x="2630" y="1468" width="200" height="170" as="geometry" />
          </mxCell>
        </object>
        <object placeholders="1" c4Type="life-digital-signature-ms" c4Container="life-digital-signature-ms" c4Technology="netcore" c4Description="life-digital-signature-ms" label="&lt;font style=&quot;font-size: 16px&quot;&gt;&lt;b&gt;%c4Type%&lt;/font&gt;&lt;div&gt;[%c4Container%:&amp;nbsp;%c4Technology%]&lt;/div&gt;&lt;br&gt;&lt;div&gt;&lt;font style=&quot;font-size: 11px&quot;&gt;&lt;font color=&quot;#E6E6E6&quot;&gt;%c4Description%&lt;/font&gt;&lt;/div&gt;" id="3M1BN86w53qEPDXQvwi6-68">
          <mxCell style="shape=hexagon;size=50;perimeter=hexagonPerimeter2;whiteSpace=wrap;html=1;fixedSize=1;rounded=1;labelBackgroundColor=none;fillColor=#21C0A5;fontSize=12;fontColor=#5C5C5C;align=center;strokeColor=#006658;metaEdit=1;points=[[0.5,0,0],[1,0.25,0],[1,0.5,0],[1,0.75,0],[0.5,1,0],[0,0.75,0],[0,0.5,0],[0,0.25,0]];resizable=0;arcSize=5;fillStyle=auto;rotation=0;" vertex="1" parent="1">
            <mxGeometry x="3560" y="1468" width="200" height="170" as="geometry" />
          </mxCell>
        </object>
        <mxCell id="3M1BN86w53qEPDXQvwi6-69" style="edgeStyle=orthogonalEdgeStyle;rounded=0;orthogonalLoop=1;jettySize=auto;html=1;fontSize=23;fontColor=#5C5C5C;strokeColor=#006658;strokeWidth=2;fillColor=#21C0A5;entryX=0.5;entryY=1;entryDx=0;entryDy=0;entryPerimeter=0;" edge="1" parent="1" source="3M1BN86w53qEPDXQvwi6-70" target="3M1BN86w53qEPDXQvwi6-94">
          <mxGeometry relative="1" as="geometry">
            <mxPoint x="2245" y="1426" as="targetPoint" />
          </mxGeometry>
        </mxCell>
        <object placeholders="1" c4Type="life-async-process-ms" c4Container="life-async-process-ms" c4Technology="netcore" c4Description="life-async-process-ms" label="&lt;font style=&quot;font-size: 16px&quot;&gt;&lt;b&gt;%c4Type%&lt;/font&gt;&lt;div&gt;[%c4Container%:&amp;nbsp;%c4Technology%]&lt;/div&gt;&lt;br&gt;&lt;div&gt;&lt;font style=&quot;font-size: 11px&quot;&gt;&lt;font color=&quot;#E6E6E6&quot;&gt;%c4Description%&lt;/font&gt;&lt;/div&gt;" id="3M1BN86w53qEPDXQvwi6-70">
          <mxCell style="shape=hexagon;size=50;perimeter=hexagonPerimeter2;whiteSpace=wrap;html=1;fixedSize=1;rounded=1;labelBackgroundColor=none;fillColor=#21C0A5;fontSize=12;fontColor=#5C5C5C;align=center;strokeColor=#006658;metaEdit=1;points=[[0.5,0,0],[1,0.25,0],[1,0.5,0],[1,0.75,0],[0.5,1,0],[0,0.75,0],[0,0.5,0],[0,0.25,0]];resizable=0;arcSize=5;fillStyle=auto;rotation=0;" vertex="1" parent="1">
            <mxGeometry x="2145" y="1468" width="200" height="170" as="geometry" />
          </mxCell>
        </object>
        <object placeholders="1" c4Type="life-pricing-atp-ms" c4Container="life-pricing-atp-ms" c4Technology="netcore" c4Description="dev-life-pricing-atp-ms" label="&lt;font style=&quot;font-size: 16px&quot;&gt;&lt;b&gt;%c4Type%&lt;/font&gt;&lt;div&gt;[%c4Container%:&amp;nbsp;%c4Technology%]&lt;/div&gt;&lt;br&gt;&lt;div&gt;&lt;font style=&quot;font-size: 11px&quot;&gt;&lt;font color=&quot;#E6E6E6&quot;&gt;%c4Description%&lt;/font&gt;&lt;/div&gt;" id="3M1BN86w53qEPDXQvwi6-71">
          <mxCell style="shape=hexagon;size=50;perimeter=hexagonPerimeter2;whiteSpace=wrap;html=1;fixedSize=1;rounded=1;labelBackgroundColor=none;fillColor=#FFB570;fontSize=12;fontColor=#5C5C5C;align=center;strokeColor=#006658;metaEdit=1;points=[[0.5,0,0],[1,0.25,0],[1,0.5,0],[1,0.75,0],[0.5,1,0],[0,0.75,0],[0,0.5,0],[0,0.25,0]];resizable=0;arcSize=5;fillStyle=auto;rotation=0;" vertex="1" parent="1">
            <mxGeometry x="4190" y="527" width="200" height="170" as="geometry" />
          </mxCell>
        </object>
        <object placeholders="1" c4Type="life-pricing-ms" c4Container="life-pricing-ms" c4Technology="netcore" c4Description="life-pricing-ms" label="&lt;font style=&quot;font-size: 16px&quot;&gt;&lt;b&gt;%c4Type%&lt;/font&gt;&lt;div&gt;[%c4Container%:&amp;nbsp;%c4Technology%]&lt;/div&gt;&lt;br&gt;&lt;div&gt;&lt;font style=&quot;font-size: 11px&quot;&gt;&lt;font color=&quot;#E6E6E6&quot;&gt;%c4Description%&lt;/font&gt;&lt;/div&gt;" id="3M1BN86w53qEPDXQvwi6-72">
          <mxCell style="shape=hexagon;size=50;perimeter=hexagonPerimeter2;whiteSpace=wrap;html=1;fixedSize=1;rounded=1;labelBackgroundColor=none;fillColor=#FFB570;fontSize=12;fontColor=#5C5C5C;align=center;strokeColor=#006658;metaEdit=1;points=[[0.5,0,0],[1,0.25,0],[1,0.5,0],[1,0.75,0],[0.5,1,0],[0,0.75,0],[0,0.5,0],[0,0.25,0]];resizable=0;arcSize=5;fillStyle=auto;rotation=0;" vertex="1" parent="1">
            <mxGeometry x="3700" y="420" width="200" height="170" as="geometry" />
          </mxCell>
        </object>
        <object placeholders="1" c4Type="??????????????" c4Container="??????????????" c4Technology="??????????????" c4Description="??????????????" label="&lt;font style=&quot;font-size: 16px&quot;&gt;&lt;b&gt;%c4Type%&lt;/font&gt;&lt;div&gt;[%c4Container%:&amp;nbsp;%c4Technology%]&lt;/div&gt;&lt;br&gt;&lt;div&gt;&lt;font style=&quot;font-size: 11px&quot;&gt;&lt;font color=&quot;#E6E6E6&quot;&gt;%c4Description%&lt;/font&gt;&lt;/div&gt;" id="3M1BN86w53qEPDXQvwi6-73">
          <mxCell style="shape=hexagon;size=50;perimeter=hexagonPerimeter2;whiteSpace=wrap;html=1;fixedSize=1;rounded=1;labelBackgroundColor=none;fillColor=#FFB570;fontSize=12;fontColor=#5C5C5C;align=center;strokeColor=#006658;metaEdit=1;points=[[0.5,0,0],[1,0.25,0],[1,0.5,0],[1,0.75,0],[0.5,1,0],[0,0.75,0],[0,0.5,0],[0,0.25,0]];resizable=0;arcSize=5;fillStyle=auto;rotation=0;" vertex="1" parent="1">
            <mxGeometry x="3700" y="670" width="200" height="170" as="geometry" />
          </mxCell>
        </object>
        <mxCell id="3M1BN86w53qEPDXQvwi6-102" style="edgeStyle=orthogonalEdgeStyle;rounded=0;orthogonalLoop=1;jettySize=auto;html=1;entryX=0.5;entryY=0;entryDx=0;entryDy=0;entryPerimeter=0;fontSize=23;fontColor=#5C5C5C;strokeColor=#006658;strokeWidth=2;fillColor=#21C0A5;" edge="1" parent="1" source="3M1BN86w53qEPDXQvwi6-75" target="3M1BN86w53qEPDXQvwi6-94">
          <mxGeometry relative="1" as="geometry" />
        </mxCell>
        <object placeholders="1" c4Type="life-public-journey-ms" c4Container="life-public-journey-ms" c4Technology="netcore" c4Description="life-public-journey-ms" label="&lt;font style=&quot;font-size: 16px&quot;&gt;&lt;b&gt;%c4Type%&lt;/font&gt;&lt;div&gt;[%c4Container%:&amp;nbsp;%c4Technology%]&lt;/div&gt;&lt;br&gt;&lt;div&gt;&lt;font style=&quot;font-size: 11px&quot;&gt;&lt;font color=&quot;#E6E6E6&quot;&gt;%c4Description%&lt;/font&gt;&lt;/div&gt;" id="3M1BN86w53qEPDXQvwi6-75">
          <mxCell style="shape=hexagon;size=50;perimeter=hexagonPerimeter2;whiteSpace=wrap;html=1;fixedSize=1;rounded=1;labelBackgroundColor=none;fillColor=#C3ABD0;fontSize=12;fontColor=#5C5C5C;align=center;strokeColor=#006658;metaEdit=1;points=[[0.5,0,0],[1,0.25,0],[1,0.5,0],[1,0.75,0],[0.5,1,0],[0,0.75,0],[0,0.5,0],[0,0.25,0]];resizable=0;arcSize=5;fillStyle=auto;" vertex="1" parent="1">
            <mxGeometry x="2654" y="-30" width="200" height="170" as="geometry" />
          </mxCell>
        </object>
        <object placeholders="1" c4Type="life-serverless-app" c4Container="life-serverless-app" c4Technology="netcore" c4Description="life-serverless-app" label="&lt;font style=&quot;font-size: 16px&quot;&gt;&lt;b&gt;%c4Type%&lt;/font&gt;&lt;div&gt;[%c4Container%:&amp;nbsp;%c4Technology%]&lt;/div&gt;&lt;br&gt;&lt;div&gt;&lt;font style=&quot;font-size: 11px&quot;&gt;&lt;font color=&quot;#E6E6E6&quot;&gt;%c4Description%&lt;/font&gt;&lt;/div&gt;" id="3M1BN86w53qEPDXQvwi6-76">
          <mxCell style="shape=hexagon;size=50;perimeter=hexagonPerimeter2;whiteSpace=wrap;html=1;fixedSize=1;rounded=1;labelBackgroundColor=none;fillColor=#21C0A5;fontSize=12;fontColor=#5C5C5C;align=center;strokeColor=#006658;metaEdit=1;points=[[0.5,0,0],[1,0.25,0],[1,0.5,0],[1,0.75,0],[0.5,1,0],[0,0.75,0],[0,0.5,0],[0,0.25,0]];resizable=0;arcSize=5;fillStyle=auto;rotation=0;" vertex="1" parent="1">
            <mxGeometry x="3095" y="1468" width="200" height="170" as="geometry" />
          </mxCell>
        </object>
        <mxCell id="3M1BN86w53qEPDXQvwi6-77" style="edgeStyle=orthogonalEdgeStyle;rounded=0;orthogonalLoop=1;jettySize=auto;html=1;fontSize=23;fontColor=#5C5C5C;strokeColor=#006658;strokeWidth=1;fillColor=#21C0A5;entryX=0.5;entryY=1;entryDx=0;entryDy=0;entryPerimeter=0;" edge="1" parent="1" source="3M1BN86w53qEPDXQvwi6-78" target="3M1BN86w53qEPDXQvwi6-94">
          <mxGeometry relative="1" as="geometry">
            <mxPoint x="3644" y="1037.9999999999995" as="targetPoint" />
          </mxGeometry>
        </mxCell>
        <object placeholders="1" c4Type="life-signup-request-ms" c4Container="life-signup-request-ms" c4Technology="netcore" c4Description="life-signup-request-ms" label="&lt;font style=&quot;font-size: 16px&quot;&gt;&lt;b&gt;%c4Type%&lt;/font&gt;&lt;div&gt;[%c4Container%:&amp;nbsp;%c4Technology%]&lt;/div&gt;&lt;br&gt;&lt;div&gt;&lt;font style=&quot;font-size: 11px&quot;&gt;&lt;font color=&quot;#E6E6E6&quot;&gt;%c4Description%&lt;/font&gt;&lt;/div&gt;" id="3M1BN86w53qEPDXQvwi6-78">
          <mxCell style="shape=hexagon;size=50;perimeter=hexagonPerimeter2;whiteSpace=wrap;html=1;fixedSize=1;rounded=1;labelBackgroundColor=none;fillColor=#7EA6E0;fontSize=12;fontColor=#5C5C5C;align=center;strokeColor=#006658;metaEdit=1;points=[[0.5,0,0],[1,0.25,0],[1,0.5,0],[1,0.75,0],[0.5,1,0],[0,0.75,0],[0,0.5,0],[0,0.25,0]];resizable=0;arcSize=5;fillStyle=auto;rotation=0;" vertex="1" parent="1">
            <mxGeometry x="3544" y="1108" width="200" height="170" as="geometry" />
          </mxCell>
        </object>
        <mxCell id="3M1BN86w53qEPDXQvwi6-79" value="" style="shape=image;html=1;verticalAlign=top;verticalLabelPosition=bottom;labelBackgroundColor=#ffffff;imageAspect=0;aspect=fixed;image=https://cdn1.iconfinder.com/data/icons/unicons-line-vol-5/24/react-128.png;fontColor=#5C5C5C;strokeColor=#006658;fillColor=#7EA6E0;" vertex="1" parent="1">
          <mxGeometry x="1920" y="-363" width="128" height="128" as="geometry" />
        </mxCell>
        <object placeholders="1" c4Type="dev-life-web" c4Container="dev-life-web" c4Technology="next js" c4Description="dev-life-web" label="&lt;font style=&quot;font-size: 16px&quot;&gt;&lt;b&gt;%c4Type%&lt;/font&gt;&lt;div&gt;[%c4Container%:&amp;nbsp;%c4Technology%]&lt;/div&gt;&lt;br&gt;&lt;div&gt;&lt;font style=&quot;font-size: 11px&quot;&gt;&lt;font color=&quot;#E6E6E6&quot;&gt;%c4Description%&lt;/font&gt;&lt;/div&gt;" id="3M1BN86w53qEPDXQvwi6-80">
          <mxCell style="shape=hexagon;size=50;perimeter=hexagonPerimeter2;whiteSpace=wrap;html=1;fixedSize=1;rounded=1;labelBackgroundColor=none;fillColor=#F19C99;fontSize=12;align=center;strokeColor=#b85450;metaEdit=1;points=[[0.5,0,0],[1,0.25,0],[1,0.5,0],[1,0.75,0],[0.5,1,0],[0,0.75,0],[0,0.5,0],[0,0.25,0]];resizable=0;arcSize=5;fillStyle=auto;" vertex="1" parent="1">
            <mxGeometry x="2640" y="-380" width="200" height="170" as="geometry" />
          </mxCell>
        </object>
        <object placeholders="1" c4Type="dev-life-web-admin" c4Container="dev-life-web-admin" c4Technology="next js" c4Description="dev-life-web-admin" label="&lt;font style=&quot;font-size: 16px&quot;&gt;&lt;b&gt;%c4Type%&lt;/font&gt;&lt;div&gt;[%c4Container%:&amp;nbsp;%c4Technology%]&lt;/div&gt;&lt;br&gt;&lt;div&gt;&lt;font style=&quot;font-size: 11px&quot;&gt;&lt;font color=&quot;#E6E6E6&quot;&gt;%c4Description%&lt;/font&gt;&lt;/div&gt;" id="3M1BN86w53qEPDXQvwi6-81">
          <mxCell style="shape=hexagon;size=50;perimeter=hexagonPerimeter2;whiteSpace=wrap;html=1;fixedSize=1;rounded=1;labelBackgroundColor=none;fillColor=#F19C99;fontSize=12;fontColor=#5C5C5C;align=center;strokeColor=#006658;metaEdit=1;points=[[0.5,0,0],[1,0.25,0],[1,0.5,0],[1,0.75,0],[0.5,1,0],[0,0.75,0],[0,0.5,0],[0,0.25,0]];resizable=0;arcSize=5;fillStyle=auto;" vertex="1" parent="1">
            <mxGeometry x="3520" y="-380" width="200" height="170" as="geometry" />
          </mxCell>
        </object>
        <mxCell id="3M1BN86w53qEPDXQvwi6-97" style="edgeStyle=orthogonalEdgeStyle;rounded=0;orthogonalLoop=1;jettySize=auto;html=1;entryX=0;entryY=0.5;entryDx=0;entryDy=0;entryPerimeter=0;fontSize=23;fontColor=#5C5C5C;strokeColor=#006658;strokeWidth=2;fillColor=#21C0A5;" edge="1" parent="1" source="3M1BN86w53qEPDXQvwi6-84" target="3M1BN86w53qEPDXQvwi6-72">
          <mxGeometry relative="1" as="geometry" />
        </mxCell>
        <mxCell id="3M1BN86w53qEPDXQvwi6-98" style="edgeStyle=orthogonalEdgeStyle;rounded=0;orthogonalLoop=1;jettySize=auto;html=1;entryX=0;entryY=0.5;entryDx=0;entryDy=0;entryPerimeter=0;fontSize=23;fontColor=#5C5C5C;strokeColor=#006658;strokeWidth=2;fillColor=#21C0A5;" edge="1" parent="1" source="3M1BN86w53qEPDXQvwi6-84" target="3M1BN86w53qEPDXQvwi6-73">
          <mxGeometry relative="1" as="geometry" />
        </mxCell>
        <mxCell id="3M1BN86w53qEPDXQvwi6-99" style="edgeStyle=orthogonalEdgeStyle;rounded=0;orthogonalLoop=1;jettySize=auto;html=1;fontSize=23;fontColor=#5C5C5C;strokeColor=#006658;strokeWidth=2;fillColor=#21C0A5;" edge="1" parent="1" source="3M1BN86w53qEPDXQvwi6-84" target="3M1BN86w53qEPDXQvwi6-71">
          <mxGeometry relative="1" as="geometry" />
        </mxCell>
        <mxCell id="3M1BN86w53qEPDXQvwi6-84" value="" style="sketch=0;outlineConnect=0;fontColor=#232F3E;gradientColor=none;fillColor=#3F8624;strokeColor=none;dashed=0;verticalLabelPosition=bottom;verticalAlign=top;align=center;html=1;fontSize=12;fontStyle=0;aspect=fixed;pointerEvents=1;shape=mxgraph.aws4.factory;" vertex="1" parent="1">
          <mxGeometry x="2840" y="544" width="136" height="136" as="geometry" />
        </mxCell>
        <mxCell id="3M1BN86w53qEPDXQvwi6-93" value="" style="shape=image;verticalLabelPosition=bottom;labelBackgroundColor=#ffffff;verticalAlign=top;aspect=fixed;imageAspect=0;image=data:image/svg+xml,PHN2ZyB4bWxuczpkYz0iaHR0cDovL3B1cmwub3JnL2RjL2VsZW1lbnRzLzEuMS8iIHhtbG5zOmNjPSJodHRwOi8vY3JlYXRpdmVjb21tb25zLm9yZy9ucyMiIHhtbG5zOnJkZj0iaHR0cDovL3d3dy53My5vcmcvMTk5OS8wMi8yMi1yZGYtc3ludGF4LW5zIyIgeG1sbnM6c3ZnPSJodHRwOi8vd3d3LnczLm9yZy8yMDAwL3N2ZyIgeG1sbnM9Imh0dHA6Ly93d3cudzMub3JnLzIwMDAvc3ZnIiB4bWxuczpzb2RpcG9kaT0iaHR0cDovL3NvZGlwb2RpLnNvdXJjZWZvcmdlLm5ldC9EVEQvc29kaXBvZGktMC5kdGQiIHhtbG5zOmlua3NjYXBlPSJodHRwOi8vd3d3Lmlua3NjYXBlLm9yZy9uYW1lc3BhY2VzL2lua3NjYXBlIiB2ZXJzaW9uPSIxLjEiIGlkPSJzdmcxMTEyNyIgaW5rc2NhcGU6dmVyc2lvbj0iMC45Mi4zICgyNDA1NTQ2LCAyMDE4LTAzLTExKSIgc29kaXBvZGk6ZG9jbmFtZT0id2ViX2FwcHMuc3ZnIiB4PSIwcHgiIHk9IjBweCIgdmlld0JveD0iMCAwIDUxLjAyOTMxNiA1MS4wMTk5OTkiIHhtbDpzcGFjZT0icHJlc2VydmUiIHdpZHRoPSI1MS4wMjkzMTYiIGhlaWdodD0iNTEuMDIiPjxtZXRhZGF0YSBpZD0ibWV0YWRhdGExMjM5MiI+PHJkZjpSREY+PGNjOldvcmsgcmRmOmFib3V0PSIiPjxkYzpmb3JtYXQ+aW1hZ2Uvc3ZnK3htbDwvZGM6Zm9ybWF0PjxkYzp0eXBlIHJkZjpyZXNvdXJjZT0iaHR0cDovL3B1cmwub3JnL2RjL2RjbWl0eXBlL1N0aWxsSW1hZ2UiLz48ZGM6dGl0bGUvPjwvY2M6V29yaz48L3JkZjpSREY+PC9tZXRhZGF0YT48ZGVmcyBpZD0iZGVmczEyMzkwIj4mI3hhOwkmI3hhOwkmI3hhOyYjeGE7CQkmI3hhOwkJJiN4YTsJCSYjeGE7CSYjeGE7CQkJJiN4YTsJCQkmI3hhOwkJCSYjeGE7CQkmI3hhOwkJCSYjeGE7CQkJJiN4YTsJCQkmI3hhOwkJJiN4YTsJCQkJJiN4YTsJCQkmI3hhOwkJCQkmI3hhOwkJCSYjeGE7CQkJCQkmI3hhOwkJCQkmI3hhOwkJCQkJJiN4YTsJCQkJPC9kZWZzPiYjeGE7PGZpbHRlciBpZD0iZmlsdGVyXzIiPiYjeGE7CTxmZUdhdXNzaWFuQmx1ciBpZD0iZmVHYXVzc2lhbkJsdXIxMTEwMCIgc3RkRGV2aWF0aW9uPSIyIi8+JiN4YTs8L2ZpbHRlcj4mI3hhOzxzb2RpcG9kaTpuYW1lZHZpZXcgYm9yZGVyY29sb3I9IiM2NjY2NjYiIGJvcmRlcm9wYWNpdHk9IjEiIGZpdC1tYXJnaW4tYm90dG9tPSIwIiBmaXQtbWFyZ2luLWxlZnQ9IjAiIGZpdC1tYXJnaW4tcmlnaHQ9IjAiIGZpdC1tYXJnaW4tdG9wPSIwIiBncmlkdG9sZXJhbmNlPSIxMCIgZ3VpZGV0b2xlcmFuY2U9IjEwIiBpZD0ibmFtZWR2aWV3MTExMjkiIGlua3NjYXBlOmN1cnJlbnQtbGF5ZXI9InN2ZzExMTI3IiBpbmtzY2FwZTpjeD0iMzQuNTc5OTYxIiBpbmtzY2FwZTpjeT0iMzMuNzcwNzQ2IiBpbmtzY2FwZTpwYWdlb3BhY2l0eT0iMCIgaW5rc2NhcGU6cGFnZXNoYWRvdz0iMiIgaW5rc2NhcGU6d2luZG93LWhlaWdodD0iMTAxNyIgaW5rc2NhcGU6d2luZG93LW1heGltaXplZD0iMSIgaW5rc2NhcGU6d2luZG93LXdpZHRoPSIxOTIwIiBpbmtzY2FwZTp3aW5kb3cteD0iLTgiIGlua3NjYXBlOndpbmRvdy15PSItOCIgaW5rc2NhcGU6em9vbT0iOC42MTMxNjY5IiBvYmplY3R0b2xlcmFuY2U9IjEwIiBwYWdlY29sb3I9IiNmZmZmZmYiIHNob3dncmlkPSJmYWxzZSI+JiN4YTsJPC9zb2RpcG9kaTpuYW1lZHZpZXc+JiN4YTs8cGF0aCBkPSJtIDQxLjAxNDUyNiw0NS43NiBjIC00LjYyLDMuNTMgLTEwLjA3LDUuMjYgLTE1LjQ3LDUuMjYgLTcuNjgsMCAtMTUuMjcsLTMuNDUgLTIwLjI3OTk5OTYsLTEwLjAxIEMgLTMuMzA1NDc0LDI5LjgyIC0xLjE5NTQ3NCwxMy44MyAxMC4wMTQ1MjYsNS4yNSBjIDQuNjIsLTMuNTUgMTAuMDgsLTUuMjUgMTUuNDgsLTUuMjUgNy42NywwIDE1LjI2LDMuNDUgMjAuMjgsMTAuMDEgOC41NywxMS4xOCA2LjQzLDI3LjE5IC00Ljc2LDM1Ljc1IHoiIHN0eWxlPSJmaWxsOiM1OWI0ZDkiIGlua3NjYXBlOmNvbm5lY3Rvci1jdXJ2YXR1cmU9IjAiIGlkPSJwYXRoMTExMTMiLz48cGF0aCBkPSJtIDM2LjMzMTI3NiwyOS45ODI5NyBjIDEuODUsMi40MSA1LjI5LDIuODUgNy43LDEuMDIgMC4xMiwtMC4wOSAwLjIyLC0wLjIxIDAuMzMsLTAuMzEgMi40NiwxLjczIDQuMTcsMi44NyA1LjEzLDMuNTMgMC4yOCwtMC43NCAwLjQ4LC0xLjQ1IDAuNjgsLTIuMTkgLTEuMDEsLTAuNzYgLTIuMzksLTEuODEgLTQuMzcsLTMuNDIgMC42NSwtMS43MiAwLjQ0LC0zLjcyIC0wLjc1LC01LjI4IC0xLjcsLTIuMjEgLTQuNzIsLTIuNzcgLTcuMDgsLTEuNDEgLTIuNiwtMi4zMyAtNS40NSwtNSAtOC40NiwtNy45OSA5LjM1LC01LjAzIDE2LC00LjI5IDE2LC00LjI5IC0xLjExLC0xLjQyIC0yLjM2LC0yLjY2IC0zLjY4LC0zLjc4IC0zLjk1LC0wLjYxIC0xMC4wNywtMC41NCAtMTcuMDcsMy4xOSBsIC0wLjAxLC0wLjAxIHYgMCBjIC0yLjMzLC0yLjQ0IC00LjcxLC01LjA2IC03LjEyLC03Ljg3IC0xLjE2LDAuMzcgLTIuMjksMC44MyAtMy4zOCwxLjM4IDEuNzgsMi45MiA0LjE4LDUuODcgNi44OSw4Ljc0IDAsMC4wMSAwLjAxLDAuMDEgMC4wMiwwLjAyIC0yLjI2LDEuNTcgLTQuNzcsMy42OCAtNy4wOSw2LjEzIC0wLjMsMC4zMiAtMC41OCwwLjY0IC0wLjg2LDAuOTUgLTEuMzgsLTAuMjkgLTIuODQsLTAuMiAtNC4xOTk5OTk2LDAuMjkgLTIuMzEsLTQuOTggLTIuMTMsLTguOTkgLTEuNzYsLTExLjA1IC0xLDEuMDUgLTEuOTQsMi4xNSAtMi43NTAwMDA0LDMuMzMgLTAuNiwyLjQ3IC0wLjc3LDYuMDIgMS4wMTAwMDA0LDEwLjMgLTIuMDYwMDAwNCwyLjcgLTIuMTYwMDAwNCw2LjUyIC0wLjAxLDkuMzUgMC4xOCwwLjIzIDAuMzcsMC40NSAwLjU3LDAuNjUgLTAuOTQwMDAwNCwzLjIgLTEuMzYwMDAwNCw2LjI5IC0xLjQ5MDAwMDQsOC45NCAwLjI0LDAuMzMgMC4yNCwwLjYgMC40OCwwLjkyIDEuMjMwMDAwNCwxLjU3IDIuNzYwMDAwNCwyLjg5IDQuMjUwMDAwNCw0LjA5IC0wLjE4LC0yLjgxIDAuMDEsLTYuOTUgMS43NDk5OTk2LC0xMS42MSAxLjIsMC4wOSAyLjQxLC0wLjA5IDMuNTUsLTAuNTcgMC42NiwwLjU3IDEuMzQsMS4xNSAyLjA3LDEuNzQgMi41LDEuOTggNSwzLjUzIDcuNDMsNC43NCAtMC4xMiwxLjI0IDAuMTksMi41MiAwLjk5LDMuNTkgMS43MiwyLjIyIDQuOTEsMi42NCA3LjEzLDAuOTQgMC40NiwtMC4zNiAwLjgzLC0wLjc4IDEuMTMsLTEuMjQgMy45NywwLjg4IDcuNDQsMS4wNCAxMC4wMSwxLjA0IDAuMzksMCAyLjIyLC0yLjQ5IDMuMjYsLTQuMDMgLTEuNTYsMC4zMyAtNi4yLDAuOTcgLTEyLjU1LC0wLjg2IC0wLjE1LC0wLjcxIC0wLjQ0LC0xLjQgLTAuOTEsLTIuMDIgLTEuNjIsLTIuMTEgLTQuNTYsLTIuNTcgLTYuNzYsLTEuMTUgLTIuMiwtMS4yIC00LjUxLC0yLjcgLTYuODksLTQuNTkgLTAuNDgsLTAuMzggLTAuOTUsLTAuNzYgLTEuMzksLTEuMTQgMS40NSwtMi4yOSAxLjYxLC01LjIzIDAuMzIsLTcuNyAwLjMsLTAuMjkgMC41OCwtMC41OSAwLjg5LC0wLjg4IDIuMzYsLTIuMiA0LjU4LC0zLjk2IDYuNjYsLTUuMzggLTAuMDksLTAuMDggLTAuMTYsLTAuMTYgLTAuMjUsLTAuMjQgMC4wOSwwLjA4IDAuMTYsMC4xNiAwLjI1LDAuMjQgdiAwIGMgMy4xOCwyLjk0IDYuNTYsNS43MyA5Ljc2LDguMjMgLTAuODUsMS43OSAtMC43MiwzLjk4IDAuNTcsNS42NiB6IiBzdHlsZT0iZmlsbDojZmZmZmZmIiBpbmtzY2FwZTpjb25uZWN0b3ItY3VydmF0dXJlPSIwIiBpZD0icGF0aDExMTIxIi8+JiN4YTs8L3N2Zz4=;fontSize=23;fontColor=#5C5C5C;strokeColor=#006658;strokeWidth=1;fillColor=#F19C99;" vertex="1" parent="1">
          <mxGeometry x="4400" y="-350" width="121" height="121" as="geometry" />
        </mxCell>
        <mxCell id="3M1BN86w53qEPDXQvwi6-100" style="edgeStyle=orthogonalEdgeStyle;rounded=0;orthogonalLoop=1;jettySize=auto;html=1;fontSize=23;fontColor=#5C5C5C;strokeColor=#006658;strokeWidth=2;fillColor=#21C0A5;" edge="1" parent="1" source="3M1BN86w53qEPDXQvwi6-94" target="3M1BN86w53qEPDXQvwi6-84">
          <mxGeometry relative="1" as="geometry" />
        </mxCell>
        <object placeholders="1" c4Type="??????????????" c4Container="??????????????" c4Technology="??????????????" c4Description="??????????????" label="&lt;font style=&quot;font-size: 16px&quot;&gt;&lt;b&gt;%c4Type%&lt;/font&gt;&lt;div&gt;[%c4Container%:&amp;nbsp;%c4Technology%]&lt;/div&gt;&lt;br&gt;&lt;div&gt;&lt;font style=&quot;font-size: 11px&quot;&gt;&lt;font color=&quot;#E6E6E6&quot;&gt;%c4Description%&lt;/font&gt;&lt;/div&gt;" id="3M1BN86w53qEPDXQvwi6-94">
          <mxCell style="shape=hexagon;size=50;perimeter=hexagonPerimeter2;whiteSpace=wrap;html=1;fixedSize=1;rounded=1;labelBackgroundColor=none;fillColor=#FFB570;fontSize=12;fontColor=#5C5C5C;align=center;strokeColor=#006658;metaEdit=1;points=[[0.5,0,0],[1,0.25,0],[1,0.5,0],[1,0.75,0],[0.5,1,0],[0,0.75,0],[0,0.5,0],[0,0.25,0]];resizable=0;arcSize=5;fillStyle=auto;rotation=0;" vertex="1" parent="1">
            <mxGeometry x="2250" y="527" width="200" height="170" as="geometry" />
          </mxCell>
        </object>
      </root>
    </mxGraphModel>
  </diagram>
</mxfile>
